Motion_pl06
version=1
nRows=13
nColumns=43
inDegrees=yes
endheader
time	pelvis_tilt	pelvis_list	pelvis_rotation	pelvis_tx	pelvis_ty	pelvis_tz	hip_flexion_r	hip_adduction_r	hip_rotation_r	knee_angle_r	ankle_angle_r	subtalar_angle_r	mtp_angle_r	hip_flexion_l	hip_adduction_l	hip_rotation_l	knee_angle_l	ankle_angle_l	subtalar_angle_l	mtp_angle_l	lumbar_extension	lumbar_bending	lumbar_rotation	neck_flexion	neck_lateral_bending	neck_rotation	arm_flex_r	arm_add_r	arm_rot_r	elbow_flex_r	pro_sup_r	wrist_flex_r	wrist_dev_r	hand_finger_flex_r	arm_flex_l	arm_add_l	arm_rot_l	elbow_flex_l	pro_sup_l	wrist_flex_l	wrist_dev_l	hand_finger_flex_l
      0.00250000	     -0.23759935	      5.64431633	     88.90204321	      0.05487193	      1.74545527	      1.92346677	     81.37402973	     -2.91957663	      2.68237013	   -153.11740298	     24.63519014	      0.65546446	     -0.79211317	     80.47586838	     -6.08543347	     11.85769413	   -152.75242511	     21.04802230	     21.90521705	     22.57886388	    -63.72254487	     -1.92833505	     -0.05781174	     31.58383584	      2.10890870	     -2.90731001	     11.12242601	    -14.07746941	    -17.05983474	     66.60347365	     93.63102255	      2.71773270	    -14.72344198	    -14.48293000	     22.91805614	    -16.83325531	     -5.26256005	     51.51596928	    101.02140529	     -7.59426551	    -13.19603297	     14.96925678
      0.00500000	     -0.25153219	      5.57153762	     88.85499798	      0.05511618	      1.74562609	      1.92266154	     81.31102461	     -2.85356728	      2.69072645	   -153.10079741	     24.64959808	      0.68140469	     -0.79047814	     80.40857376	     -6.15178306	     11.86866286	   -152.73138927	     20.96995710	     21.92723782	     22.60043085	    -63.68712744	     -1.98520676	     -0.07610875	     31.70835120	      2.07388894	     -3.14262000	     11.50761335	    -14.12042312	    -16.89595441	     66.52077196	     93.77175984	      2.78846961	    -14.69679402	    -14.48665219	     23.24390074	    -16.87254184	     -5.25558472	     51.51819510	    100.96787809	     -7.55283683	    -13.07277688	     14.97838694
      0.00750000	     -0.26366954	      5.50025923	     88.85283475	      0.05523043	      1.74547536	      1.92178636	     81.29115606	     -2.85310367	      2.70843715	   -153.15948794	     24.64629303	      0.68182950	     -0.79014681	     80.38649523	     -6.15475018	     11.89248866	   -152.77874071	     20.96298308	     21.92159563	     22.60390693	    -63.62999348	     -1.99784988	     -0.06787436	     31.69727543	      2.06981064	     -3.15179505	     11.74195888	    -14.12227083	    -16.86338233	     66.62851037	     93.77887399	      2.80364618	    -14.71774868	    -14.48579831	     23.50205555	    -16.86332404	     -5.25513703	     51.64272513	    100.96524594	     -7.54762129	    -13.08644640	     14.97856560
      0.01000000	     -0.28493363	      5.37924995	     88.81509813	      0.05549171	      1.74584873	      1.92108280	     81.25586083	     -2.77193181	      2.72626973	   -153.08209904	     24.66097818	      0.72333693	     -0.78172505	     80.33469513	     -6.18449296	     11.87118102	   -152.69502525	     20.94755011	     21.89941557	     22.64092802	    -63.59789637	     -2.05997408	     -0.08014719	     31.97822042	      2.05315177	     -3.25185974	     12.18511872	    -14.23834486	    -16.65426088	     66.54314383	     93.87808093	      2.91301165	    -14.64604944	    -14.48754337	     23.93240000	    -16.97015667	     -5.11317563	     51.61427912	    101.04138955	     -7.44560610	    -12.91420209	     15.01645489
      0.01250000	     -0.31362113	      5.29480043	     88.78349064	      0.05572565	      1.74601350	      1.92028029	     81.20561076	     -2.71696314	      2.75669148	   -153.06924047	     24.68119431	      0.76164507	     -0.76897087	     80.26922718	     -6.20889421	     11.85177600	   -152.66906416	     20.92904713	     21.85895105	     22.68843900	    -63.57304946	     -2.12538339	     -0.08764176	     32.13550123	      2.06977954	     -3.31800239	     12.54055762	    -14.31891676	    -16.52152303	     66.56340926	     93.96397723	      3.00239344	    -14.62773979	    -14.50611565	     24.29527725	    -17.06688788	     -4.98234010	     51.70089333	    101.14128886	     -7.36614769	    -12.77533147	     15.05599888
      0.01500000	     -0.33649595	      5.18511380	     88.77513388	      0.05592902	      1.74610255	      1.91948282	     81.18467910	     -2.67826779	      2.78043806	   -153.04904530	     24.68396005	      0.78436921	     -0.76274998	     80.23664633	     -6.18516990	     11.86867820	   -152.63591866	     20.91355167	     21.83637960	     22.71154891	    -63.51671782	     -2.16715196	     -0.09246534	     32.19987839	      2.08157656	     -3.33926094	     12.86199065	    -14.36796576	    -16.45502402	     66.65077723	     94.01206108	      3.04376977	    -14.63471600	    -14.51465101	     24.63264504	    -17.12220032	     -4.92035558	     51.82401941	    101.20370975	     -7.34482610	    -12.72378451	     15.07204913
      0.01750000	     -0.36054905	      5.06827635	     88.76303510	      0.05614847	      1.74622550	      1.91864439	     81.16516775	     -2.64715444	      2.79934678	   -153.04188659	     24.69395510	      0.82699381	     -0.75093628	     80.21859148	     -6.17948812	     11.86673518	   -152.61202727	     20.88733346	     21.81497192	     22.74907297	    -63.46226644	     -2.21849096	     -0.11420951	     32.41390941	      2.12025627	     -3.37410399	     13.26025432	    -14.45297513	    -16.31304999	     66.66147467	     94.12348957	      3.11389814	    -14.60842686	    -14.52139319	     25.02353058	    -17.24164027	     -4.74716937	     51.90271128	    101.35070649	     -7.31246083	    -12.59715553	     15.10434780
      0.02000000	     -0.39693003	      4.96328480	     88.75627821	      0.05636003	      1.74630591	      1.91776687	     81.14370623	     -2.63370116	      2.83004594	   -153.05384212	     24.71639418	      0.88374827	     -0.73181097	     80.19734052	     -6.17046449	     11.85630562	   -152.60635708	     20.85047552	     21.79659882	     22.80848692	    -63.41416992	     -2.27697781	     -0.15442927	     32.64127200	      2.19466547	     -3.40805156	     13.65775958	    -14.55719842	    -16.17615674	     66.67151523	     94.30504590	      3.19635305	    -14.59890553	    -14.53647850	     25.41245487	    -17.41462330	     -4.50898830	     52.02458999	    101.58091870	     -7.32551341	    -12.42500874	     15.14744778
      0.02250000	     -0.44260743	      4.84353990	     88.76975643	      0.05659229	      1.74641247	      1.91689977	     81.13214009	     -2.63288337	      2.87783833	   -153.05399725	     24.73726810	      0.94624356	     -0.71006797	     80.17992399	     -6.12776474	     11.84836911	   -152.58272430	     20.81272189	     21.79298109	     22.88347152	    -63.35887850	     -2.33873356	     -0.20371154	     32.83171904	      2.27267274	     -3.42942715	     14.06319980	    -14.63459674	    -16.08004902	     66.70296412	     94.52664197	      3.27848991	    -14.61539987	    -14.56068189	     25.80643338	    -17.57225432	     -4.28238539	     52.17247623	    101.84349337	     -7.42380569	    -12.24445683	     15.19008176
      0.02500000	     -0.48688520	      4.69170955	     88.79889247	      0.05681923	      1.74652735	      1.91599823	     81.11870727	     -2.63384915	      2.92646643	   -153.05292611	     24.74898891	      1.00564008	     -0.69098239	     80.17460601	     -6.06324631	     11.84203672	   -152.54460431	     20.78266108	     21.80777177	     22.95743952	    -63.27960472	     -2.39151973	     -0.24924141	     33.01162723	      2.33802410	     -3.44429377	     14.48756925	    -14.68674210	    -15.99481677	     66.74462993	     94.73644281	      3.36288799	    -14.63290752	    -14.58322071	     26.21614138	    -17.69479536	     -4.07818239	     52.30169958	    102.09241870	     -7.56070772	    -12.08642286	     15.23433101
      0.02750000	     -0.60696558	      4.59270435	     88.83685505	      0.05696449	      1.74655883	      1.91509224	     81.11976972	     -2.68838303	      3.07984640	   -153.08587109	     24.79788617	      1.14402402	     -0.63292111	     80.13649121	     -5.95549885	     11.78194921	   -152.51291057	     20.74648439	     21.86237684	     23.20775191	    -63.22299217	     -2.47026032	     -0.34922025	     33.08152733	      2.45136055	     -3.47168973	     14.82447219	    -14.70814458	    -16.06278071	     66.82595659	     95.23915851	      3.55122891	    -14.76467039	    -14.70319880	     26.60113163	    -17.86816198	     -3.72926216	     52.58306979	    102.70224489	     -8.12253559	    -11.77216227	     15.42193008
      0.03000000	     -0.62069243	      4.43098755	     88.83076076	      0.05710835	      1.74668743	      1.91415075	     81.12316124	     -2.66425398	      3.08876433	   -153.07135131	     24.78234354	      1.17164231	     -0.62782407	     80.15074313	     -5.92842206	     11.80460728	   -152.47627248	     20.73585685	     21.86515614	     23.23999525	    -63.11898479	     -2.48464988	     -0.37289209	     33.24108528	      2.43787226	     -3.48376230	     15.26053457	    -14.71553020	    -16.01075977	     66.87466269	     95.27619176	      3.58346378	    -14.74714951	    -14.72142632	     27.04891227	    -17.87917525	     -3.70896563	     52.59485840	    102.75382519	     -8.16675046	    -11.73589852	     15.46389782
      0.03250000	     -0.63574522	      4.27078111	     88.84326407	      0.05729477	      1.74681836	      1.91320163	     81.14090099	     -2.66168820	      3.10024771	   -153.06237594	     24.79140382	      1.20334255	     -0.61795490	     80.16797153	     -5.90228900	     11.82558440	   -152.44880262	     20.73344456	     21.88506764	     23.28585189	    -63.01851689	     -2.50244408	     -0.39295967	     33.43790862	      2.43850574	     -3.49993242	     15.70968983	    -14.75959834	    -15.94171017	     66.90944305	     95.30415708	      3.61180028	    -14.71759318	    -14.74653277	     27.54259520	    -17.94088074	     -3.58049152	     52.58918260	    102.89531831	     -8.23030808	    -11.66676832	     15.53238370
